<svg data-v-423bf9ae="" xmlns="http://www.w3.org/2000/svg" viewBox="0 0 385.9392956204054 60" class="font"><!----><!----><!----><g data-v-423bf9ae="" id="a2816827-52a7-45fc-8242-dd671c73c22f" fill="RGB(231,113,48)" transform="matrix(4.92206705261137,0,0,4.92206705261137,-0.6890863209997633,-18.211648090945936)"><path d="M8.26 5.91C8.26 5.95 8.26 5.99 8.23 6.03L8.22 6.08L2.70 15.65L2.69 15.69C2.63 15.76 2.55 15.82 2.46 15.82L0.57 15.82C0.42 15.82 0.31 15.69 0.31 15.53C0.31 15.48 0.31 15.43 0.34 15.39L0.35 15.37L5.75 5.96L0.39 5.96C0.25 5.96 0.14 5.84 0.14 5.68C0.14 5.63 0.14 5.59 0.17 5.54L0.18 5.52L1.12 3.93L1.15 3.89C1.19 3.82 1.27 3.78 1.36 3.78L7.92 3.78C8.12 3.78 8.26 3.91 8.26 4.06ZM16.76 11.98C16.76 14.10 15.04 15.82 12.92 15.82C10.92 15.82 9.27 14.27 9.11 12.31L9.11 12.28C9.11 12.12 9.23 12.00 9.38 11.98L11.05 11.98C11.17 12.00 11.28 12.10 11.30 12.22L11.30 12.24C11.42 13.02 12.11 13.62 12.92 13.62C13.83 13.62 14.56 12.89 14.56 11.98C14.56 11.09 13.83 10.35 12.92 10.35L9.35 10.35C9.21 10.35 9.10 10.22 9.10 10.07L9.10 4.07C9.10 3.91 9.21 3.78 9.37 3.78L15.93 3.78C16.07 3.78 16.20 3.91 16.21 4.05L16.21 5.71C16.20 5.85 16.09 5.96 15.95 5.96L11.28 5.96L11.28 8.16L13.20 8.16C15.19 8.32 16.76 9.97 16.76 11.98ZM26.22 12.28C26.22 12.38 26.21 13.22 25.68 14.07C25.19 14.88 24.18 15.83 22.12 15.83C20.50 15.83 19.22 15.15 18.54 13.93C18.21 13.34 18.09 12.77 18.05 12.40C18.05 12.38 18.03 12.35 18.03 12.32C18.03 12.18 18.14 12.05 18.28 12.04L20.01 12.04C20.12 12.05 20.20 12.12 20.23 12.24L20.23 12.25C20.23 12.26 20.24 12.28 20.24 12.29C20.27 12.46 20.34 12.70 20.48 12.91C20.78 13.40 21.32 13.65 22.12 13.65C22.97 13.65 23.52 13.41 23.81 12.94C24.01 12.61 24.04 12.26 24.04 12.26C24.04 11.87 23.94 11.41 23.21 11.12C22.68 10.89 22.12 10.88 22.12 10.88C22.02 10.88 21.13 10.86 20.20 10.50C18.79 9.93 18.02 8.81 18.02 7.34C18.02 7.20 18.05 5.89 19.07 4.87C19.80 4.13 20.83 3.75 22.12 3.75C22.95 3.75 24.14 3.93 25.05 4.86C25.93 5.75 26.15 6.89 26.21 7.45L26.21 7.48C26.21 7.64 26.10 7.77 25.94 7.77L24.25 7.77C24.14 7.76 24.04 7.66 24.01 7.55L24.01 7.50C23.97 7.31 23.90 7.03 23.76 6.75C23.56 6.40 23.18 5.94 22.12 5.94C21.43 5.94 20.93 6.09 20.61 6.41C20.23 6.79 20.20 7.34 20.20 7.34C20.20 7.73 20.30 8.18 21.03 8.47C21.56 8.68 22.12 8.69 22.12 8.69C22.22 8.69 23.11 8.71 24.04 9.09C25.45 9.67 26.22 10.81 26.22 12.28ZM35.06 5.68C35.06 5.84 34.90 5.96 34.72 5.96L32.05 5.96L32.05 15.47C32.05 15.65 31.92 15.81 31.78 15.81L30.13 15.81C29.99 15.81 29.86 15.65 29.86 15.47L29.86 5.96L27.13 5.96C26.98 5.96 26.85 5.84 26.85 5.68L26.85 4.05C26.85 3.89 26.98 3.78 27.13 3.78L34.72 3.78C34.90 3.78 35.06 3.89 35.06 4.05ZM44.24 15.37L42.01 11.42L41.71 10.89L41.64 10.77C43.67 10.32 44.72 8.82 44.72 7.35C44.72 6.38 44.27 5.46 43.50 4.82C42.71 4.14 41.61 3.79 40.33 3.79L36.25 3.79C36.09 3.79 35.97 3.92 35.97 4.06L35.97 5.17L36.11 5.42L36.11 5.43L37.97 8.71L35.97 8.71L35.97 15.54C35.97 15.69 36.09 15.82 36.25 15.82L37.88 15.82C38.02 15.82 38.15 15.69 38.15 15.54L38.15 10.89L39.20 10.89L39.49 11.42L41.89 15.65L41.92 15.69C41.96 15.76 42.04 15.82 42.14 15.82L44.02 15.82C44.17 15.82 44.28 15.69 44.28 15.53C44.28 15.48 44.28 15.44 44.25 15.40ZM40.18 8.19L38.93 5.98L40.33 5.98C41.85 5.98 42.52 6.69 42.52 7.35C42.52 7.91 42.01 8.53 40.88 8.68C40.75 8.69 40.61 8.71 40.47 8.71ZM51.37 15.82C48.05 15.82 45.35 13.12 45.35 9.80C45.35 6.48 48.05 3.78 51.37 3.78C54.68 3.78 57.39 6.48 57.39 9.80C57.39 13.12 54.68 15.82 51.37 15.82ZM51.37 5.96C49.25 5.96 47.53 7.69 47.53 9.80C47.53 11.91 49.25 13.62 51.37 13.62C53.48 13.62 55.19 11.91 55.19 9.80C55.19 7.69 53.48 5.96 51.37 5.96ZM66.92 15.89L60.90 9.32L60.90 15.53C60.90 15.68 60.79 15.81 60.63 15.81L59.00 15.81C58.84 15.81 58.72 15.68 58.72 15.53L58.72 3.70L64.74 10.26L64.74 4.06C64.74 3.91 64.86 3.78 65.00 3.78L66.65 3.78C66.79 3.78 66.92 3.91 66.92 4.06ZM78.46 8.79C78.41 8.74 78.36 8.71 78.29 8.71L74.45 8.71C74.30 8.71 74.19 8.83 74.19 8.99L74.19 10.63C74.19 10.78 74.30 10.89 74.45 10.89L76.37 10.89L76.37 12.95C74.70 14.11 72.39 13.76 71.15 12.12C69.86 10.44 70.18 8.04 71.86 6.76C73.19 5.75 74.97 5.74 76.29 6.61C76.38 6.66 76.51 6.66 76.59 6.59L77.95 5.56C78.08 5.46 78.09 5.29 77.99 5.17C77.99 5.15 77.98 5.14 77.97 5.12L77.92 5.10C75.82 3.42 72.77 3.32 70.55 5.03C67.90 7.04 67.40 10.82 69.41 13.45C71.06 15.62 73.93 16.35 76.37 15.41C76.89 15.20 77.38 14.94 77.84 14.59C78.06 14.41 78.27 14.22 78.47 14.03L78.47 14.01C78.53 13.97 78.55 13.90 78.55 13.82L78.55 8.99C78.55 8.90 78.53 8.85 78.46 8.79Z"></path></g><!----><!----></svg>