<svg data-v-423bf9ae="" xmlns="http://www.w3.org/2000/svg" viewBox="0 0 492 90" class="iconLeft"><!----><!----><!----><g data-v-423bf9ae="" id="3c5bb495-9e50-4d88-91d2-c83040e3ad64" fill="#000000" transform="matrix(4.838709826275912,0,0,4.838709826275912,109.35809538766935,-3.967741934491521)"><path d="M6.48 10.67L7.43 13.58L9.53 13.58L6.12 3.92L3.70 3.92L0.21 13.58L2.27 13.58L3.23 10.67ZM4.87 5.57L5.99 9.14L3.72 9.14ZM17.22 6.13L15.29 6.13L15.29 9.93C15.29 11.61 14.62 12.40 13.65 12.40C12.75 12.40 12.31 11.91 12.21 11.14C12.17 10.77 12.15 10.36 12.15 10.12L12.15 6.13L10.22 6.13L10.22 10.53C10.22 11.13 10.23 11.51 10.29 11.89C10.46 12.91 11.38 13.78 12.92 13.78C13.64 13.78 14.17 13.64 14.71 13.27L15.29 12.32L15.29 13.58L17.22 13.58ZM21.31 7.46L22.85 7.46L22.85 6.19L21.31 6.19L21.31 4.35L19.38 4.35L19.38 6.19L18.28 6.19L18.28 7.46L19.38 7.46L19.38 11.13C19.38 11.55 19.38 11.87 19.40 12.21C19.49 13.26 20.01 13.73 21.45 13.73C21.88 13.73 22.29 13.71 22.72 13.64L22.72 12.38C21.64 12.46 21.38 12.29 21.32 11.56C21.31 11.37 21.31 11.16 21.31 10.91ZM27.29 5.94C24.81 5.94 23.42 7.59 23.42 9.86C23.42 12.11 24.81 13.78 27.29 13.78C29.76 13.78 31.15 12.11 31.15 9.86C31.15 7.59 29.76 5.94 27.29 5.94ZM27.29 12.42C26.12 12.42 25.42 11.45 25.42 9.86C25.42 8.25 26.12 7.29 27.29 7.29C28.45 7.29 29.15 8.25 29.15 9.86C29.15 11.45 28.45 12.42 27.29 12.42ZM36.90 8.54L41.17 3.92L38.88 3.92L34.71 8.58L34.71 3.92L32.77 3.92L32.77 13.58L34.71 13.58L34.71 10.54L35.50 9.67L38.49 13.58L40.98 13.58ZM48.13 9.70C48.13 7.67 46.93 5.94 44.65 5.94C42.36 5.94 40.87 7.60 40.87 9.88C40.87 12.50 42.45 13.78 44.49 13.78C46.24 13.78 47.64 12.89 48.02 11.16L46.09 11.16C45.96 11.96 45.36 12.42 44.53 12.42C43.64 12.42 42.94 11.93 42.81 10.36L48.10 10.36C48.13 10.11 48.13 9.88 48.13 9.70ZM44.56 7.29C45.49 7.29 46.02 7.92 46.14 9.10L42.87 9.10C43.04 7.87 43.67 7.29 44.56 7.29ZM56.22 9.70C56.22 7.67 55.02 5.94 52.74 5.94C50.46 5.94 48.96 7.60 48.96 9.88C48.96 12.50 50.54 13.78 52.58 13.78C54.33 13.78 55.73 12.89 56.11 11.16L54.18 11.16C54.05 11.96 53.45 12.42 52.63 12.42C51.73 12.42 51.03 11.93 50.90 10.36L56.20 10.36C56.22 10.11 56.22 9.88 56.22 9.70ZM52.65 7.29C53.58 7.29 54.11 7.92 54.24 9.10L50.96 9.10C51.13 7.87 51.76 7.29 52.65 7.29ZM61.98 5.94C61.22 5.94 60.47 6.12 60.05 6.45L59.49 7.27L59.49 6.13L57.55 6.13L57.55 16.32L59.49 16.32L59.49 12.59L59.98 13.36C60.35 13.62 61.11 13.78 61.73 13.78C63.64 13.78 65.30 12.40 65.30 9.72C65.30 7.52 64.06 5.94 61.98 5.94ZM61.35 12.42C60.45 12.42 59.49 11.82 59.49 10.12L59.49 9.77C59.49 7.95 60.35 7.29 61.42 7.29C62.57 7.29 63.29 8.32 63.29 9.84C63.29 11.56 62.47 12.42 61.35 12.42ZM73.32 9.70C73.32 7.67 72.11 5.94 69.83 5.94C67.55 5.94 66.05 7.60 66.05 9.88C66.05 12.50 67.63 13.78 69.68 13.78C71.43 13.78 72.83 12.89 73.21 11.16L71.27 11.16C71.15 11.96 70.55 12.42 69.72 12.42C68.82 12.42 68.12 11.93 68.00 10.36L73.29 10.36C73.32 10.11 73.32 9.88 73.32 9.70ZM69.75 7.29C70.67 7.29 71.20 7.92 71.33 9.10L68.05 9.10C68.22 7.87 68.85 7.29 69.75 7.29ZM78.44 5.95C78.02 5.95 77.53 6.12 77.17 6.45L76.58 7.49L76.58 6.13L74.65 6.13L74.65 13.58L76.58 13.58L76.58 10.16C76.58 8.16 77.38 7.45 78.99 7.56L78.99 6.01C78.82 5.96 78.67 5.95 78.44 5.95Z"></path></g><defs data-v-423bf9ae=""><linearGradient data-v-423bf9ae="" gradientTransform="rotate(25)" id="4314a49c-43b4-414e-9b12-d6f20d7e0a9b" x1="0%" y1="0%" x2="100%" y2="0%"><stop data-v-423bf9ae="" offset="0%" style="stop-color: rgb(233, 13, 202); stop-opacity: 1;"></stop><stop data-v-423bf9ae="" offset="100%" style="stop-color: rgb(21, 54, 241); stop-opacity: 1;"></stop></linearGradient></defs><g data-v-423bf9ae="" id="5c0bc563-58b5-4310-a0d6-2b1d489f7afe" transform="matrix(1.8711019304589391,0,0,1.8711019304589391,0.8128890931853618,0)" stroke="none" fill="url(#4314a49c-43b4-414e-9b12-d6f20d7e0a9b)"><path d="M.7 19.9c-.4.1-.7.5-.7.9v6.3c0 .4.3.8.7 1l4.4 1.3c.4 1.4 1 2.8 1.7 4.1l-2.2 4.1c-.2.4-.1.9.2 1.2l4.5 4.5c.3.3.8.4 1.2.2l4.1-2.2c1.3.7 2.7 1.3 4.1 1.7l1.3 4.4c.1.4.5.7 1 .7h6.3c.4 0 .8-.3 1-.7l1.3-4.4c1.4-.4 2.8-1 4.1-1.7l4.1 2.2c.4.2.9.1 1.2-.2l4.5-4.5c.3-.3.4-.8.2-1.2l-2.2-4.1c.7-1.3 1.3-2.7 1.7-4.1l4.4-1.3c.4-.1.7-.5.7-1v-6.3c0-.4-.3-.8-.7-1l-4.4-1.3c-.4-1.4-1-2.8-1.7-4.1l2.2-4.1c.2-.4.1-.9-.2-1.2L39 4.6c-.3-.3-.8-.4-1.2-.2l-4.1 2.2c-1.3-.7-2.7-1.3-4.1-1.7L28.3.5c-.3-.2-.7-.5-1.1-.5h-6.3c-.4 0-.8.3-1 .7l-1.3 4.4c-1.4.4-2.8 1-4.1 1.7l-4.1-2.2c-.4-.2-.9-.1-1.2.2L4.8 9.3c-.3.3-.4.8-.2 1.2l2.2 4.1c-.7 1.3-1.3 2.7-1.7 4.1L.7 19.9zm6.2-.3C7.3 18 8 16.5 8.8 15c.2-.3.2-.7 0-1l-2.1-3.9 3.4-3.4L14 8.8c.3.2.7.2 1 0 1.4-.9 3-1.5 4.6-1.9.3-.1.6-.3.7-.7L21.6 2h4.8l1.3 4.2c.1.3.4.6.7.7C30 7.3 31.5 8 33 8.8c.3.2.7.2 1 0l3.9-2.1 3.4 3.4-2.1 3.9c-.2.3-.2.7 0 1 .9 1.4 1.5 3 1.9 4.6.1.3.3.6.7.7l4.2 1.3v4.8l-4.2 1.3c-.3.1-.6.4-.7.7-.4 1.6-1.1 3.1-1.9 4.6-.2.3-.2.7 0 1l2.1 3.9-3.4 3.4-3.9-2.1c-.3-.2-.7-.2-1 0-1.4.9-3 1.5-4.6 1.9-.3.1-.6.3-.7.7L26.4 46h-4.8l-1.3-4.2c-.1-.3-.4-.6-.7-.7-1.6-.4-3.1-1.1-4.6-1.9-.3-.2-.7-.2-1 0l-3.9 2.1-3.4-3.4L8.8 34c.2-.3.2-.7 0-1-.9-1.4-1.5-3-1.9-4.6-.1-.3-.3-.6-.7-.7L2 26.4v-4.8l4.2-1.3c.4-.1.6-.3.7-.7z"></path><path d="M24 37.6c7.5 0 13.6-6.1 13.6-13.6S31.5 10.4 24 10.4 10.4 16.5 10.4 24 16.5 37.6 24 37.6zM12.4 24c0-6.4 5.2-11.6 11.6-11.6S35.6 17.6 35.6 24c0 6.4-5.2 11.6-11.6 11.6-1.6 0-3.1-.3-4.5-.9l3.5-3.5c2.9.7 5.9-.1 8-2.2 2-2 2.8-4.8 2.3-7.6-.1-.8-1.1-1.1-1.7-.5l-4 4-4.5-4.5 4-4c.6-.6.3-1.5-.5-1.7-2.8-.5-5.6.3-7.6 2.3-2.1 2.1-2.9 5.1-2.2 8l-3.5 3.5c-.6-1.3-.9-2.9-.9-4.5zm6.2 2c.3-.3.4-.7.2-1-.8-2.3-.2-4.9 1.6-6.6 1-1 2.3-1.6 3.6-1.8l-3 3.1c-.4.4-.4 1 0 1.4l5.9 5.9c.6.6 1.2.2 1.4 0l3.1-3.1c-.2 1.4-.8 2.6-1.8 3.6-1.7 1.7-4.2 2.3-6.6 1.6-.4-.1-.8 0-1 .2l-4.3 4.3c-1.3-.9-2.5-2-3.3-3.3l4.2-4.3z"></path></g><!----></svg>